<svg class="marks" width="798" height="402" viewBox="0 0 798 402" version="1.1" xmlns="http://www.w3.org/2000/svg" xmlns:xlink="http://www.w3.org/1999/xlink"><g transform="translate(192,26)"><g class="mark-group role-frame root"><g transform="translate(0,0)"><path class="background" d="M0.5,0.5h600v350h-600Z" style="fill: none; stroke: #ddd;"></path><g><g class="mark-group role-axis"><g transform="translate(0.5,350.5)"><path class="background" d="M0,0h0v0h0Z" style="pointer-events: none; fill: none;"></path><g><g class="mark-rule role-axis-grid" style="pointer-events: none;"><line transform="translate(0,0)" x2="0" y2="-350" style="fill: none; stroke: #ddd; stroke-width: 1; opacity: 1;"></line><line transform="translate(30,0)" x2="0" y2="-350" style="fill: none; stroke: #ddd; stroke-width: 1; opacity: 1;"></line><line transform="translate(60,0)" x2="0" y2="-350" style="fill: none; stroke: #ddd; stroke-width: 1; opacity: 1;"></line><line transform="translate(90,0)" x2="0" y2="-350" style="fill: none; stroke: #ddd; stroke-width: 1; opacity: 1;"></line><line transform="translate(120,0)" x2="0" y2="-350" style="fill: none; stroke: #ddd; stroke-width: 1; opacity: 1;"></line><line transform="translate(150,0)" x2="0" y2="-350" style="fill: none; stroke: #ddd; stroke-width: 1; opacity: 1;"></line><line transform="translate(180,0)" x2="0" y2="-350" style="fill: none; stroke: #ddd; stroke-width: 1; opacity: 1;"></line><line transform="translate(210,0)" x2="0" y2="-350" style="fill: none; stroke: #ddd; stroke-width: 1; opacity: 1;"></line><line transform="translate(240,0)" x2="0" y2="-350" style="fill: none; stroke: #ddd; stroke-width: 1; opacity: 1;"></line><line transform="translate(270,0)" x2="0" y2="-350" style="fill: none; stroke: #ddd; stroke-width: 1; opacity: 1;"></line><line transform="translate(300,0)" x2="0" y2="-350" style="fill: none; stroke: #ddd; stroke-width: 1; opacity: 1;"></line><line transform="translate(330,0)" x2="0" y2="-350" style="fill: none; stroke: #ddd; stroke-width: 1; opacity: 1;"></line><line transform="translate(360,0)" x2="0" y2="-350" style="fill: none; stroke: #ddd; stroke-width: 1; opacity: 1;"></line><line transform="translate(390,0)" x2="0" y2="-350" style="fill: none; stroke: #ddd; stroke-width: 1; opacity: 1;"></line><line transform="translate(420,0)" x2="0" y2="-350" style="fill: none; stroke: #ddd; stroke-width: 1; opacity: 1;"></line><line transform="translate(450,0)" x2="0" y2="-350" style="fill: none; stroke: #ddd; stroke-width: 1; opacity: 1;"></line><line transform="translate(480,0)" x2="0" y2="-350" style="fill: none; stroke: #ddd; stroke-width: 1; opacity: 1;"></line><line transform="translate(510,0)" x2="0" y2="-350" style="fill: none; stroke: #ddd; stroke-width: 1; opacity: 1;"></line><line transform="translate(540,0)" x2="0" y2="-350" style="fill: none; stroke: #ddd; stroke-width: 1; opacity: 1;"></line><line transform="translate(570,0)" x2="0" y2="-350" style="fill: none; stroke: #ddd; stroke-width: 1; opacity: 1;"></line><line transform="translate(600,0)" x2="0" y2="-350" style="fill: none; stroke: #ddd; stroke-width: 1; opacity: 1;"></line></g></g></g></g><g class="mark-rect role-mark layer_0_marks"><path d="M0,331.5277777777778h232.0573432972396v17.5h-232.0573432972396Z" style="fill: #303030;"></path><path d="M0,312.08333333333337h232.88089065121247v17.5h-232.88089065121247Z" style="fill: #303030;"></path><path d="M0,292.6388888888889h265.63977428702157v17.5h-265.63977428702157Z" style="fill: #303030;"></path><path d="M0,273.19444444444446h270.58105841085865v17.5h-270.58105841085865Z" style="fill: #303030;"></path><path d="M0,253.75000000000003h298.58166844593563v17.5h-298.58166844593563Z" style="fill: #303030;"></path><path d="M0,234.30555555555557h300.503278938539v17.5h-300.503278938539Z" style="fill: #303030;"></path><path d="M0,214.86111111111111h319.07884703370445v17.5h-319.07884703370445Z" style="fill: #303030;"></path><path d="M0,195.41666666666669h325.66722586548724v17.5h-325.66722586548724Z" style="fill: #303030;"></path><path d="M0,175.97222222222226h325.94174165014493v17.5h-325.94174165014493Z" style="fill: #303030;"></path><path d="M0,156.5277777777778h327.31432057343295v17.5h-327.31432057343295Z" style="fill: #303030;"></path><path d="M0,137.08333333333334h339.5760256214732v17.5h-339.5760256214732Z" style="fill: #303030;"></path><path d="M0,117.63888888888891h342.7787097758121v17.5h-342.7787097758121Z" style="fill: #303030;"></path><path d="M0,98.19444444444447h363.6419094097911v17.5h-363.6419094097911Z" style="fill: #303030;"></path><path d="M0,78.75000000000003h403.9957297544609v17.5h-403.9957297544609Z" style="fill: #303030;"></path><path d="M0,59.305555555555586h418.1790452951045v17.5h-418.1790452951045Z" style="fill: #303030;"></path><path d="M0,39.86111111111114h426.41451883483296v17.5h-426.41451883483296Z" style="fill: #303030;"></path><path d="M0,20.4166666666667h445.63062376086623v17.5h-445.63062376086623Z" style="fill: #303030;"></path><path d="M0,0.972222222222257h480.21961262772606v17.5h-480.21961262772606Z" style="fill: #303030;"></path></g><g class="mark-rule role-mark layer_1_marks"><line transform="translate(300,350)" x2="0" y2="-350" style="fill: none; stroke: orange;"></line><line transform="translate(300,350)" x2="0" y2="-350" style="fill: none; stroke: orange;"></line><line transform="translate(300,350)" x2="0" y2="-350" style="fill: none; stroke: orange;"></line><line transform="translate(300,350)" x2="0" y2="-350" style="fill: none; stroke: orange;"></line><line transform="translate(300,350)" x2="0" y2="-350" style="fill: none; stroke: orange;"></line><line transform="translate(300,350)" x2="0" y2="-350" style="fill: none; stroke: orange;"></line><line transform="translate(300,350)" x2="0" y2="-350" style="fill: none; stroke: orange;"></line><line transform="translate(300,350)" x2="0" y2="-350" style="fill: none; stroke: orange;"></line><line transform="translate(300,350)" x2="0" y2="-350" style="fill: none; stroke: orange;"></line><line transform="translate(300,350)" x2="0" y2="-350" style="fill: none; stroke: orange;"></line><line transform="translate(300,350)" x2="0" y2="-350" style="fill: none; stroke: orange;"></line><line transform="translate(300,350)" x2="0" y2="-350" style="fill: none; stroke: orange;"></line><line transform="translate(300,350)" x2="0" y2="-350" style="fill: none; stroke: orange;"></line><line transform="translate(300,350)" x2="0" y2="-350" style="fill: none; stroke: orange;"></line><line transform="translate(300,350)" x2="0" y2="-350" style="fill: none; stroke: orange;"></line><line transform="translate(300,350)" x2="0" y2="-350" style="fill: none; stroke: orange;"></line><line transform="translate(300,350)" x2="0" y2="-350" style="fill: none; stroke: orange;"></line><line transform="translate(300,350)" x2="0" y2="-350" style="fill: none; stroke: orange;"></line></g><g class="mark-group role-title"><g transform="translate(300,-21)"><path class="background" d="M0,0h0v0h0Z" style="pointer-events: none; fill: none;"></path><g><g class="mark-text role-title-text" style="pointer-events: none;"><text text-anchor="middle" transform="translate(0,13)" style="font-family: Times New Roman; font-size: 16px; font-weight: bold; fill: #000; opacity: 1;">How often in a game the team with more points has more of each stat</text></g></g></g></g><g class="mark-group role-axis"><g transform="translate(0.5,350.5)"><path class="background" d="M0,0h0v0h0Z" style="pointer-events: none; fill: none;"></path><g><g class="mark-rule role-axis-tick" style="pointer-events: none;"><line transform="translate(0,0)" x2="0" y2="5" style="fill: none; stroke: #888; stroke-width: 1; opacity: 1;"></line><line transform="translate(30,0)" x2="0" y2="5" style="fill: none; stroke: #888; stroke-width: 1; opacity: 1;"></line><line transform="translate(60,0)" x2="0" y2="5" style="fill: none; stroke: #888; stroke-width: 1; opacity: 1;"></line><line transform="translate(90,0)" x2="0" y2="5" style="fill: none; stroke: #888; stroke-width: 1; opacity: 1;"></line><line transform="translate(120,0)" x2="0" y2="5" style="fill: none; stroke: #888; stroke-width: 1; opacity: 1;"></line><line transform="translate(150,0)" x2="0" y2="5" style="fill: none; stroke: #888; stroke-width: 1; opacity: 1;"></line><line transform="translate(180,0)" x2="0" y2="5" style="fill: none; stroke: #888; stroke-width: 1; opacity: 1;"></line><line transform="translate(210,0)" x2="0" y2="5" style="fill: none; stroke: #888; stroke-width: 1; opacity: 1;"></line><line transform="translate(240,0)" x2="0" y2="5" style="fill: none; stroke: #888; stroke-width: 1; opacity: 1;"></line><line transform="translate(270,0)" x2="0" y2="5" style="fill: none; stroke: #888; stroke-width: 1; opacity: 1;"></line><line transform="translate(300,0)" x2="0" y2="5" style="fill: none; stroke: #888; stroke-width: 1; opacity: 1;"></line><line transform="translate(330,0)" x2="0" y2="5" style="fill: none; stroke: #888; stroke-width: 1; opacity: 1;"></line><line transform="translate(360,0)" x2="0" y2="5" style="fill: none; stroke: #888; stroke-width: 1; opacity: 1;"></line><line transform="translate(390,0)" x2="0" y2="5" style="fill: none; stroke: #888; stroke-width: 1; opacity: 1;"></line><line transform="translate(420,0)" x2="0" y2="5" style="fill: none; stroke: #888; stroke-width: 1; opacity: 1;"></line><line transform="translate(450,0)" x2="0" y2="5" style="fill: none; stroke: #888; stroke-width: 1; opacity: 1;"></line><line transform="translate(480,0)" x2="0" y2="5" style="fill: none; stroke: #888; stroke-width: 1; opacity: 1;"></line><line transform="translate(510,0)" x2="0" y2="5" style="fill: none; stroke: #888; stroke-width: 1; opacity: 1;"></line><line transform="translate(540,0)" x2="0" y2="5" style="fill: none; stroke: #888; stroke-width: 1; opacity: 1;"></line><line transform="translate(570,0)" x2="0" y2="5" style="fill: none; stroke: #888; stroke-width: 1; opacity: 1;"></line><line transform="translate(600,0)" x2="0" y2="5" style="fill: none; stroke: #888; stroke-width: 1; opacity: 1;"></line></g><g class="mark-text role-axis-label" style="pointer-events: none;"><text text-anchor="start" transform="translate(0,18)" style="font-family: Times New Roman; font-size: 14px; fill: #000; opacity: 1;">0%</text><text text-anchor="middle" transform="translate(30,18)" style="font-family: Times New Roman; font-size: 14px; fill: #000; opacity: 0;">5%</text><text text-anchor="middle" transform="translate(60,18)" style="font-family: Times New Roman; font-size: 14px; fill: #000; opacity: 1;">10%</text><text text-anchor="middle" transform="translate(90,18)" style="font-family: Times New Roman; font-size: 14px; fill: #000; opacity: 0;">15%</text><text text-anchor="middle" transform="translate(120,18)" style="font-family: Times New Roman; font-size: 14px; fill: #000; opacity: 1;">20%</text><text text-anchor="middle" transform="translate(150,18)" style="font-family: Times New Roman; font-size: 14px; fill: #000; opacity: 0;">25%</text><text text-anchor="middle" transform="translate(180,18)" style="font-family: Times New Roman; font-size: 14px; fill: #000; opacity: 1;">30%</text><text text-anchor="middle" transform="translate(210,18)" style="font-family: Times New Roman; font-size: 14px; fill: #000; opacity: 0;">35%</text><text text-anchor="middle" transform="translate(240,18)" style="font-family: Times New Roman; font-size: 14px; fill: #000; opacity: 1;">40%</text><text text-anchor="middle" transform="translate(270,18)" style="font-family: Times New Roman; font-size: 14px; fill: #000; opacity: 0;">45%</text><text text-anchor="middle" transform="translate(300,18)" style="font-family: Times New Roman; font-size: 14px; fill: #000; opacity: 1;">50%</text><text text-anchor="middle" transform="translate(330,18)" style="font-family: Times New Roman; font-size: 14px; fill: #000; opacity: 0;">55%</text><text text-anchor="middle" transform="translate(360,18)" style="font-family: Times New Roman; font-size: 14px; fill: #000; opacity: 1;">60%</text><text text-anchor="middle" transform="translate(390,18)" style="font-family: Times New Roman; font-size: 14px; fill: #000; opacity: 0;">65%</text><text text-anchor="middle" transform="translate(420,18)" style="font-family: Times New Roman; font-size: 14px; fill: #000; opacity: 1;">70%</text><text text-anchor="middle" transform="translate(450,18)" style="font-family: Times New Roman; font-size: 14px; fill: #000; opacity: 0;">75%</text><text text-anchor="middle" transform="translate(480,18)" style="font-family: Times New Roman; font-size: 14px; fill: #000; opacity: 1;">80%</text><text text-anchor="middle" transform="translate(510,18)" style="font-family: Times New Roman; font-size: 14px; fill: #000; opacity: 0;">85%</text><text text-anchor="middle" transform="translate(540,18)" style="font-family: Times New Roman; font-size: 14px; fill: #000; opacity: 1;">90%</text><text text-anchor="middle" transform="translate(570,18)" style="font-family: Times New Roman; font-size: 14px; fill: #000; opacity: 0;">95%</text><text text-anchor="end" transform="translate(600,18)" style="font-family: Times New Roman; font-size: 14px; fill: #000; opacity: 1;">100%</text></g><g class="mark-rule role-axis-domain" style="pointer-events: none;"><line transform="translate(0,0)" x2="600" y2="0" style="fill: none; stroke: #888; stroke-width: 1; opacity: 1;"></line></g></g></g></g><g class="mark-group role-axis"><g transform="translate(0.5,0.5)"><path class="background" d="M0,0h0v0h0Z" style="pointer-events: none; fill: none;"></path><g><g class="mark-rule role-axis-tick" style="pointer-events: none;"><line transform="translate(0,9)" x2="-5" y2="0" style="fill: none; stroke: #888; stroke-width: 1; opacity: 1;"></line><line transform="translate(0,28)" x2="-5" y2="0" style="fill: none; stroke: #888; stroke-width: 1; opacity: 1;"></line><line transform="translate(0,48)" x2="-5" y2="0" style="fill: none; stroke: #888; stroke-width: 1; opacity: 1;"></line><line transform="translate(0,67)" x2="-5" y2="0" style="fill: none; stroke: #888; stroke-width: 1; opacity: 1;"></line><line transform="translate(0,87)" x2="-5" y2="0" style="fill: none; stroke: #888; stroke-width: 1; opacity: 1;"></line><line transform="translate(0,106)" x2="-5" y2="0" style="fill: none; stroke: #888; stroke-width: 1; opacity: 1;"></line><line transform="translate(0,125)" x2="-5" y2="0" style="fill: none; stroke: #888; stroke-width: 1; opacity: 1;"></line><line transform="translate(0,145)" x2="-5" y2="0" style="fill: none; stroke: #888; stroke-width: 1; opacity: 1;"></line><line transform="translate(0,164)" x2="-5" y2="0" style="fill: none; stroke: #888; stroke-width: 1; opacity: 1;"></line><line transform="translate(0,184)" x2="-5" y2="0" style="fill: none; stroke: #888; stroke-width: 1; opacity: 1;"></line><line transform="translate(0,203)" x2="-5" y2="0" style="fill: none; stroke: #888; stroke-width: 1; opacity: 1;"></line><line transform="translate(0,223)" x2="-5" y2="0" style="fill: none; stroke: #888; stroke-width: 1; opacity: 1;"></line><line transform="translate(0,242)" x2="-5" y2="0" style="fill: none; stroke: #888; stroke-width: 1; opacity: 1;"></line><line transform="translate(0,262)" x2="-5" y2="0" style="fill: none; stroke: #888; stroke-width: 1; opacity: 1;"></line><line transform="translate(0,281)" x2="-5" y2="0" style="fill: none; stroke: #888; stroke-width: 1; opacity: 1;"></line><line transform="translate(0,300)" x2="-5" y2="0" style="fill: none; stroke: #888; stroke-width: 1; opacity: 1;"></line><line transform="translate(0,320)" x2="-5" y2="0" style="fill: none; stroke: #888; stroke-width: 1; opacity: 1;"></line><line transform="translate(0,339)" x2="-5" y2="0" style="fill: none; stroke: #888; stroke-width: 1; opacity: 1;"></line></g><g class="mark-text role-axis-label" style="pointer-events: none;"><text text-anchor="end" transform="translate(-7,12.722222222222257)" style="font-family: Times New Roman; font-size: 14px; fill: #000; opacity: 1;">field_goal_pct</text><text text-anchor="end" transform="translate(-7,32.1666666666667)" style="font-family: Times New Roman; font-size: 14px; fill: #000; opacity: 1;">made_field_goals</text><text text-anchor="end" transform="translate(-7,51.61111111111114)" style="font-family: Times New Roman; font-size: 14px; fill: #000; opacity: 1;">defensive_rebounds</text><text text-anchor="end" transform="translate(-7,71.05555555555559)" style="font-family: Times New Roman; font-size: 14px; fill: #000; opacity: 1;">three_point_pct</text><text text-anchor="end" transform="translate(-7,90.50000000000003)" style="font-family: Times New Roman; font-size: 14px; fill: #000; opacity: 1;">assists</text><text text-anchor="end" transform="translate(-7,109.94444444444447)" style="font-family: Times New Roman; font-size: 14px; fill: #000; opacity: 1;">made_three_point_field_goals</text><text text-anchor="end" transform="translate(-7,129.3888888888889)" style="font-family: Times New Roman; font-size: 14px; fill: #000; opacity: 1;">assists_per_fg</text><text text-anchor="end" transform="translate(-7,148.83333333333334)" style="font-family: Times New Roman; font-size: 14px; fill: #000; opacity: 1;">made_free_throws</text><text text-anchor="end" transform="translate(-7,168.2777777777778)" style="font-family: Times New Roman; font-size: 14px; fill: #000; opacity: 1;">free_throw_pct</text><text text-anchor="end" transform="translate(-7,187.72222222222226)" style="font-family: Times New Roman; font-size: 14px; fill: #000; opacity: 1;">blocks</text><text text-anchor="end" transform="translate(-7,207.16666666666669)" style="font-family: Times New Roman; font-size: 14px; fill: #000; opacity: 1;">attempted_free_throws</text><text text-anchor="end" transform="translate(-7,226.61111111111111)" style="font-family: Times New Roman; font-size: 14px; fill: #000; opacity: 1;">steals</text><text text-anchor="end" transform="translate(-7,246.05555555555557)" style="font-family: Times New Roman; font-size: 14px; fill: #000; opacity: 1;">attempted_three_point_field_…</text><text text-anchor="end" transform="translate(-7,265.5)" style="font-family: Times New Roman; font-size: 14px; fill: #000; opacity: 1;">team</text><text text-anchor="end" transform="translate(-7,284.94444444444446)" style="font-family: Times New Roman; font-size: 14px; fill: #000; opacity: 1;">attempted_field_goals</text><text text-anchor="end" transform="translate(-7,304.3888888888889)" style="font-family: Times New Roman; font-size: 14px; fill: #000; opacity: 1;">offensive_rebounds</text><text text-anchor="end" transform="translate(-7,323.83333333333337)" style="font-family: Times New Roman; font-size: 14px; fill: #000; opacity: 1;">turnovers</text><text text-anchor="end" transform="translate(-7,343.2777777777778)" style="font-family: Times New Roman; font-size: 14px; fill: #000; opacity: 1;">personal_fouls</text></g><g class="mark-rule role-axis-domain" style="pointer-events: none;"><line transform="translate(0,0)" x2="0" y2="350" style="fill: none; stroke: #888; stroke-width: 1; opacity: 1;"></line></g></g></g></g></g></g></g></g></svg>